<?xml version="1.0"?>
<svg width="412.996" height="412.996" xmlns="http://www.w3.org/2000/svg" xmlns:svg="http://www.w3.org/2000/svg">
 <g class="layer">
  <title>Layer 1</title>
  <g id="svg_1">
   <g id="svg_2">
    <g id="svg_3">
     <path d="m392.996,28.338l-372.996,0c-11.047,0 -20,8.954 -20,20l0,234c0,11.046 8.953,20 20,20l139.498,0l0,45.32l-54.283,0c-10.201,0 -18.5,8.299 -18.5,18.5s8.299,18.5 18.5,18.5l202.566,0c10.201,0 18.5,-8.299 18.5,-18.5s-8.299,-18.5 -18.5,-18.5l-54.283,0l0,-45.32l139.498,0c11.047,0 20,-8.954 20,-20l0,-234c0,-11.046 -8.953,-20 -20,-20zm-10,244l-352.996,0l0,-214l352.996,0l0,214z" fill="#ffffff" id="svg_4"/>
     <path d="m94.591,176.637l63.084,29.336c1.631,0.755 3.367,1.138 5.162,1.138c2.338,0 4.616,-0.664 6.597,-1.924c3.548,-2.267 5.666,-6.13 5.666,-10.335l0,-0.322c0,-4.751 -2.785,-9.115 -7.096,-11.119l-39.455,-18.33l39.456,-18.334c4.31,-2.004 7.095,-6.369 7.095,-11.118l0,-0.319c0,-4.211 -2.119,-8.074 -5.665,-10.334c-1.962,-1.254 -4.247,-1.916 -6.606,-1.916c-1.778,0 -3.563,0.391 -5.16,1.133l-63.079,29.332c-4.308,2.005 -7.091,6.369 -7.091,11.117l0,0.878c-0.001,4.742 2.781,9.105 7.092,11.117z" fill="#ffffff" id="svg_5"/>
     <path d="m175.662,236.389c2.301,3.149 6.002,5.029 9.901,5.029l0.315,0c5.352,0 10.042,-3.426 11.672,-8.516l41.557,-128.76c1.192,-3.717 0.53,-7.818 -1.771,-10.974c-2.301,-3.149 -6.002,-5.03 -9.901,-5.03l-0.314,0c-5.354,0 -10.048,3.426 -11.679,8.516l-41.562,128.771c-1.182,3.72 -0.516,7.817 1.782,10.964z" fill="#ffffff" id="svg_6"/>
     <path d="m237.896,135.628c0,4.746 2.782,9.11 7.095,11.122l39.455,18.33l-39.455,18.33c-4.311,2.004 -7.096,6.368 -7.096,11.119l0,0.322c0,4.205 2.117,8.068 5.669,10.336c1.974,1.258 4.254,1.923 6.595,1.923c1.792,0 3.527,-0.383 5.169,-1.142l63.081,-29.335c4.307,-2.009 7.089,-6.372 7.089,-11.115l0,-0.878c0,-4.748 -2.783,-9.112 -7.093,-11.117l-63.08,-29.334c-1.591,-0.739 -3.373,-1.131 -5.152,-1.131c-2.358,0 -4.644,0.662 -6.604,1.912c-3.554,2.264 -5.673,6.127 -5.673,10.338l0,0.32l0,0z" fill="#ffffff" id="svg_7"/>
    </g>
   </g>
  </g>
  <g id="svg_8"/>
  <g id="svg_9"/>
  <g id="svg_10"/>
  <g id="svg_11"/>
  <g id="svg_12"/>
  <g id="svg_13"/>
  <g id="svg_14"/>
  <g id="svg_15"/>
  <g id="svg_16"/>
  <g id="svg_17"/>
  <g id="svg_18"/>
  <g id="svg_19"/>
  <g id="svg_20"/>
  <g id="svg_21"/>
  <g id="svg_22"/>
 </g>
</svg>